# Blender 3.4.1
# www.blender.org
mtllib blue_falcon_fixed.mtl
o polygon0_polygon0.001
v 3.220000 10.799999 3.760001
v 3.220000 10.800001 -3.739999
v 11.440000 11.700000 1.510001
v 11.440000 11.700000 -1.489999
v 22.029999 7.840001 1.510000
v 22.029999 7.840002 -1.490000
v -12.800000 11.250000 -2.239999
v -12.800000 11.250000 2.260001
v -24.320000 8.339999 1.110000
v -20.480000 7.649999 5.260000
v 7.210000 3.100000 -8.239998
v 7.210000 3.100000 8.260002
v 22.039999 1.700002 -4.489998
v 22.039999 1.700000 4.510002
v 30.969999 2.320003 -3.309999
v 30.969999 2.320002 3.330000
v 7.210000 3.099999 12.010000
v 0.640000 0.339999 9.940000
v 0.640000 0.340001 -9.920000
v 7.210000 3.100001 -11.989999
v 27.800001 4.800002 2.260001
v 17.480000 5.889999 7.510002
v 17.480000 5.890000 4.510000
v 7.639999 7.800000 8.260001
v 7.639999 7.800001 5.260000
v 27.800001 4.800003 -2.239999
v 17.480000 5.890001 -4.489999
v 17.480000 5.890000 -7.489998
v 7.639999 7.800002 -5.239998
v 7.639999 7.800002 -8.239999
v -24.320000 8.339999 -1.090000
v -20.480000 7.650000 -5.239998
v -20.740000 1.600000 -11.240000
v -0.540000 3.100001 -14.359999
v -0.540000 3.099999 14.380001
v -20.740000 1.599998 11.259999
v 7.210000 7.900000 12.009999
v -3.020000 9.059999 9.010001
v -20.740000 5.999998 11.260000
v -3.180000 5.529999 14.250001
v -20.740000 -0.000001 9.010000
v -17.480000 3.309999 -2.240000
v -20.609999 7.579999 -8.989999
v -20.740000 6.000000 -11.239999
v -20.740000 -0.000001 -8.989999
v 7.210000 7.900002 -11.990000
v -3.180000 5.530001 -14.229999
v -24.320000 5.549999 -1.090000
v -24.320000 6.949999 -1.829999
v -17.480000 3.309999 2.260000
v -24.320000 5.549999 1.110001
v -24.320000 6.949998 1.850000
v -3.020000 9.060001 -8.989999
v -20.609999 7.579997 9.010001
v -25.000000 12.600002 -16.489998
v -25.000000 2.400001 -16.490000
v -22.660000 15.000002 -16.490000
v -12.530000 13.740002 -16.490000
v -12.530000 13.739998 16.510000
v -25.000000 2.399997 16.510000
v -22.660000 14.999998 16.510000
v -25.000000 12.599998 16.510002
v -1.540000 2.399998 15.759999
v -6.910000 -0.000001 15.009999
v -24.910000 -0.000002 15.009999
v -1.540000 2.400002 -15.740000
v -20.740000 1.600000 -11.240000
v -0.540000 3.100001 -14.359999
v -0.540000 3.099999 14.380001
v -20.740000 1.599998 11.259999
v -6.910000 0.000001 -14.990000
v -24.910000 0.000000 -14.990000
v -24.999998 12.600002 -15.889997
v -24.997141 1.959144 -14.479736
v -22.660000 15.000002 -15.889998
v -12.539584 13.750541 -15.890068
v -12.539584 13.750537 15.910069
v -24.999088 2.259167 15.867826
v -22.660000 14.999998 15.910001
v -25.000000 12.599998 15.910002
v -1.490379 1.908573 14.441694
v -6.919027 0.268822 14.471014
v -24.910000 0.317997 14.501201
v -1.515414 2.156511 -15.086809
v -20.697952 0.988105 -10.098483
v -0.464358 2.548854 -12.780240
v -0.464358 2.548851 12.800241
v -20.697952 0.988103 10.118483
v -6.919027 0.268824 -14.451015
v -24.910000 0.318000 -14.481201
vn -0.3112 -0.9503 -0.0000
vn -1.0000 -0.0000 -0.0000
vn 0.3716 0.7251 -0.5798
vn 0.3716 0.7251 0.5798
vn -0.6562 0.3546 0.6661
vn -0.6562 0.3546 -0.6661
vn 0.0426 0.9991 -0.0000
vn -0.0633 0.9980 -0.0000
vn -0.0176 0.9998 -0.0000
vn 0.1966 0.9805 -0.0000
vn 0.3844 0.9232 -0.0000
vn 0.4258 0.9048 -0.0000
vn -0.1309 0.9721 -0.1946
vn -0.1401 0.9454 0.2942
vn -0.2551 0.9578 0.1321
vn -0.1584 0.8093 0.5656
vn -0.0397 -0.9992 -0.0000
vn 0.1512 -0.9885 -0.0000
vn 0.2331 -0.9725 -0.0000
vn 0.0149 -0.9999 -0.0000
vn 0.0693 -0.9976 -0.0000
vn 0.2053 -0.9787 -0.0000
vn 0.3873 -0.9220 -0.0000
vn 0.2678 -0.9635 -0.0000
vn 0.1622 0.9868 -0.0000
vn 0.1480 0.9890 -0.0000
vn 0.1050 0.9945 -0.0000
vn 0.3200 0.9474 -0.0000
vn 0.3845 0.9231 -0.0000
vn 0.1479 0.9890 -0.0000
vn -0.2586 0.9453 -0.1986
vn -0.1584 0.8093 -0.5656
vn -0.0474 0.6972 -0.7153
vn 0.1300 0.9652 0.2268
vn 0.0066 0.9301 0.3672
vn 0.1165 0.9931 -0.0131
vn -0.0262 0.9713 0.2365
vn -0.1563 -0.0521 0.9863
vn -0.0528 0.0401 0.9978
vn -0.1679 -0.0000 0.9858
vn 0.1044 0.0403 0.9937
vn -0.0192 -0.8329 0.5530
vn 0.0437 -0.8307 0.5550
vn -0.0290 -0.8146 0.5793
vn 0.0802 -0.8369 0.5415
vn -0.8944 -0.4223 0.1476
vn -0.9781 0.0524 0.2014
vn -0.8344 -0.5497 0.0392
vn -0.9435 -0.1424 0.2992
vn -0.9349 0.1835 0.3038
vn -0.8273 0.5461 0.1318
vn 0.1044 0.0403 -0.9937
vn 0.2266 0.1119 -0.9675
vn 0.2924 -0.0000 -0.9563
vn -0.0528 0.0401 -0.9978
vn 0.1650 -0.4492 -0.8781
vn 0.1383 -0.3093 -0.9409
vn 0.1476 -0.4645 -0.8732
vn 0.1319 -0.2261 -0.9651
vn 0.1383 -0.3093 0.9409
vn 0.1650 -0.4492 0.8781
vn 0.1476 -0.4645 0.8732
vn 0.1319 -0.2261 0.9651
vn -0.4619 -0.5423 -0.7018
vn -0.3327 -0.6809 -0.6524
vn -0.5734 -0.3828 -0.7243
vn -0.4619 -0.5423 0.7018
vn -0.3327 -0.6809 0.6524
vn -0.5734 -0.3828 0.7243
vn 0.0148 -0.9999 -0.0000
vn 0.0150 -0.9999 -0.0000
vn 0.5180 0.8554 -0.0000
vn 0.5682 0.8229 -0.0000
vn 0.2072 0.6203 0.7565
vn 0.2072 0.6463 0.7344
vn 0.2291 0.6200 0.7504
vn 0.1799 0.6162 0.7668
vn 0.2072 0.6463 -0.7344
vn 0.2072 0.6203 -0.7565
vn 0.2291 0.6200 -0.7504
vn 0.1799 0.6162 -0.7668
vn 0.6162 0.7876 -0.0000
vn 0.0437 -0.8307 -0.5550
vn -0.0192 -0.8330 -0.5530
vn -0.0290 -0.8146 -0.5793
vn 0.0801 -0.8369 -0.5415
vn -0.1563 -0.0521 -0.9863
vn -0.1679 -0.0000 -0.9858
vn 0.1300 0.9652 -0.2268
vn 0.0066 0.9301 -0.3672
vn -0.0262 0.9713 -0.2365
vn 0.1165 0.9931 0.0131
vn -0.0922 0.9314 -0.3522
vn -0.1309 0.9913 -0.0140
vn 0.9973 -0.0457 -0.0571
vn 0.9935 -0.0000 -0.1139
vn 0.9958 -0.0911 -0.0000
vn 0.1769 0.5871 -0.7899
vn 0.1472 0.6073 -0.7807
vn 0.1769 0.5871 0.7899
vn 0.1472 0.6073 0.7807
vn -0.0922 0.9314 0.3522
vn -0.1309 0.9913 0.0140
vn 0.9973 -0.0457 0.0571
vn 0.9935 -0.0000 0.1139
vn -0.9349 0.1835 -0.3038
vn -0.9781 0.0524 -0.2014
vn -0.8273 0.5461 -0.1318
vn -0.9435 -0.1424 -0.2992
vn -0.8944 -0.4223 -0.1476
vn -0.8344 -0.5497 -0.0392
vn 0.2266 0.1119 0.9675
vn 0.2924 -0.0000 0.9563
vn -0.8273 0.5460 -0.1318
vn -0.0752 0.8181 0.5701
vn -0.0692 0.8282 0.5561
vn 0.1689 -0.8163 0.5523
vn 0.1689 -0.8163 -0.5523
vn -0.0713 0.8250 -0.5607
vn 0.0747 -0.0068 0.9972
vn 0.0747 -0.0068 -0.9972
vn -0.0474 0.6972 0.7153
vn -0.0691 0.8284 0.5559
vn -0.0049 0.9880 -0.1546
vn -0.1261 0.9186 0.3746
vn -0.0049 0.9880 0.1546
vn -0.2594 0.7393 -0.6214
vn -0.6425 -0.1937 -0.7414
vn -0.7184 0.2922 -0.6313
vn 0.3583 0.6913 -0.6275
vn -0.7184 0.2922 0.6313
vn -0.6424 -0.1937 0.7415
vn -0.2594 0.7393 0.6214
vn -0.3458 -0.0908 0.9339
vn 0.2365 -0.8495 0.4715
vn 0.2426 -0.8211 0.5166
vn -0.5559 -0.8054 0.2055
vn 0.8880 0.4599 0.0063
vn 0.2756 0.9103 -0.3088
vn -0.0681 0.9911 -0.1144
vn 0.3587 0.7031 0.6141
vn -0.3443 -0.0923 -0.9343
vn 0.2806 -0.8646 -0.4169
vn 0.0484 -0.9015 -0.4300
vn -0.5535 -0.8062 -0.2088
vn 0.6302 0.6075 -0.4836
vn 0.6390 0.6218 0.4528
vn -0.0015 -0.9767 0.2148
vn 0.1127 -0.9475 -0.2991
vn 0.0025 -0.9758 -0.2188
vn -0.2625 0.7696 0.5821
vn -0.7572 0.3383 0.5587
vn -0.7287 -0.0773 0.6805
vn 0.3240 0.7047 0.6312
vn -0.7194 0.2937 -0.6294
vn -0.2605 0.7431 -0.6164
vn -0.7578 -0.1336 -0.6386
vn -0.7514 0.6356 -0.1771
vn 0.5157 -0.8563 -0.0280
vn 0.0032 -0.5793 -0.8151
vn -0.5759 -0.1893 -0.7953
vn 0.5160 -0.1861 0.8361
vn 0.0483 -0.9880 -0.1469
vn 0.4238 -0.9015 0.0880
vn 0.3020 0.6857 -0.6623
vn -0.7873 0.4141 0.4569
vn 0.2519 -0.4919 0.8334
vn 0.5582 -0.8152 0.1546
vn -0.6052 -0.4160 0.6787
vn 0.7110 0.4977 0.4967
vn 0.6782 0.4938 -0.5442
vn -0.2626 0.8466 0.4630
vn 0.8616 -0.4117 -0.2968
vn 0.5717 -0.7734 -0.2737
vn 0.6951 -0.6386 -0.3302
vn -0.0145 0.9370 -0.3489
vn -0.0185 0.9369 -0.3492
vn -0.0097 0.9372 -0.3487
vn 0.1891 0.9147 -0.3571
vn 0.3050 0.9105 -0.2791
vn -0.0146 0.8953 -0.4453
vn -0.5756 0.5447 -0.6099
vn 0.1220 0.8298 0.5446
vn 0.7167 -0.5495 0.4294
vn -0.0049 0.8888 -0.4582
vn -0.0163 0.8884 -0.4588
vn -0.0100 0.8886 -0.4585
vn -0.2625 0.8587 0.4401
vn -0.0466 0.9979 -0.0457
vn -0.1975 0.9794 0.0419
vn 0.0318 0.9925 -0.1183
vt 0.430225 0.314665
vt 0.430061 0.314637
vt 0.653187 0.605613
vt 0.722751 0.917313
vt 0.728080 0.917313
vt 0.430061 0.314637
vt 0.653187 0.577594
vt 0.462031 0.327302
vt 0.462031 0.327302
vt 0.313187 0.770992
vt 0.504911 0.314685
vt 0.313187 0.770992
vt 0.504911 0.314685
vt 0.727014 0.917313
vt 0.723817 0.917313
vt 0.724634 0.917313
vt 0.202481 0.961323
vt 0.721685 0.917313
vt 0.784910 0.560782
vt 0.761226 0.918365
vt 0.746949 0.258127
vt 0.784910 0.622424
vt 0.698697 0.918365
vt 0.746949 0.258127
vt 0.747015 0.917446
vt 0.712908 0.917446
vt 0.733276 0.917191
vt 0.742543 0.916949
vt 0.818827 0.658238
vt 0.725672 0.917190
vt 0.717380 0.916949
vt 0.629366 0.658238
vt 0.684487 0.918365
vt 0.784910 0.636434
vt 0.718359 0.917313
vt 0.262587 0.341716
vt 0.568014 0.628701
vt 0.263322 0.257462
vt 0.732471 0.917313
vt 0.568013 0.554506
vt 0.775437 0.918365
vt 0.784910 0.546773
vt 0.721435 0.917229
vt 0.313187 0.770992
vt 0.659897 0.954056
vt 0.701540 0.917873
vt 0.507006 0.348143
vt 0.712908 0.917873
vt 0.313187 0.770992
vt 0.698697 0.918520
vt 0.799105 0.622424
vt 0.736903 0.409768
vt 0.710066 0.918520
vt 0.313187 0.770992
vt 0.446645 0.314555
vt 0.799105 0.611217
vt 0.738488 0.917229
vt 0.313187 0.770992
vt 0.788297 0.954056
vt 0.747015 0.917873
vt 0.313187 0.770992
vt 0.758383 0.917873
vt 0.507006 0.348143
vt 0.749857 0.918520
vt 0.313187 0.770992
vt 0.446645 0.314555
vt 0.799105 0.571990
vt 0.761226 0.918520
vt 0.799105 0.560782
vt 0.736903 0.409768
vt 0.726197 0.917313
vt 0.202481 0.961323
vt 0.729146 0.917313
vt 0.428805 0.656279
vt 0.733409 0.917313
vt 0.735626 0.917313
vt 0.529058 0.537919
vt 0.715205 0.917313
vt 0.529058 0.645288
vt 0.717422 0.917313
vt 0.430006 0.654204
vt 0.684487 0.918549
vt 0.784910 0.636434
vt 0.719020 0.917313
vt 0.713225 0.241626
vt 0.447186 0.625226
vt 0.430006 0.881812
vt 0.717422 0.917313
vt 0.715297 0.917313
vt 0.613290 0.029612
vt 0.441903 0.644802
vt 0.719020 0.917313
vt 0.099136 0.341716
vt 0.343985 0.572265
vt 0.018315 0.348601
vt 0.088072 0.736143
vt 0.727014 0.917313
vt 0.216689 0.504167
vt 0.343451 0.963416
vt 0.731810 0.917313
vt 0.947358 0.245159
vt 0.428805 0.882266
vt 0.733409 0.917313
vt 0.343451 0.574102
vt 0.099136 0.258013
vt 0.731810 0.917313
vt 0.334609 0.349065
vt 0.775437 0.918549
vt 0.784910 0.546773
vt 0.441903 0.538405
vt 0.735533 0.917313
vt 0.347749 0.011944
vt 0.726197 0.917313
vt 0.726723 0.917313
vt 0.723817 0.917313
vt 0.088072 0.736143
vt 0.134413 0.504167
vt 0.724634 0.917313
vt 0.724108 0.917313
vt 0.731810 0.917313
vt 0.447186 0.557981
vt 0.236393 0.241626
vt 0.346136 0.963751
vt 0.719020 0.917313
vt 0.002260 0.241626
vt 0.988351 0.133284
vt 0.731600 0.917189
vt 0.971868 0.531745
vt 0.732665 0.917189
vt 0.954248 0.029460
vt 0.882513 0.028890
vt 0.729477 0.917189
vt 0.740873 0.998322
vt 0.882513 0.028890
vt 0.501831 0.671756
vt 0.725337 0.917189
vt 0.971868 0.531745
vt 0.713691 0.917313
vt 0.954248 0.029460
vt 0.988351 0.133284
vt 0.714224 0.917313
vt 0.997764 0.664242
vt 0.725504 0.917189
vt 0.714757 0.917313
vt 0.714757 0.917313
vt 0.736606 0.917313
vt 0.732498 0.917189
vt 0.727725 0.917189
vt 0.733409 0.917313
vt 0.731499 0.917189
vt 0.735626 0.917313
vt 0.725810 0.917189
vt 0.726503 0.917189
vt 0.732331 0.917189
vt 0.732331 0.917189
vt 0.988351 0.133284
vt 0.731600 0.917189
vt 0.971868 0.531745
vt 0.732665 0.917189
vt 0.954248 0.029460
vt 0.882513 0.028890
vt 0.729477 0.917189
vt 0.882513 0.028890
vt 0.740873 0.998322
vt 0.501831 0.671756
vt 0.971868 0.531745
vt 0.713691 0.917313
vt 0.725337 0.917189
vt 0.954248 0.029460
vt 0.988351 0.133284
vt 0.997764 0.664242
vt 0.714224 0.917313
vt 0.725504 0.917189
vt 0.714757 0.917313
vt 0.714757 0.917313
vt 0.727725 0.917189
vt 0.732498 0.917189
vt 0.736606 0.917313
vt 0.731499 0.917189
vt 0.733409 0.917313
vt 0.735626 0.917313
vt 0.725810 0.917189
vt 0.726503 0.917189
vt 0.732331 0.917189
vt 0.732331 0.917189
s 0
usemtl mat1.001
f 50/115/1 48/113/1 42/97/1
f 51/118/1 48/113/1 50/115/1
f 51/118/2 49/114/2 48/113/2
f 52/119/2 49/114/2 51/118/2
f 9/16/2 49/114/2 52/119/2
f 31/71/2 49/114/2 9/16/2
f 28/62/3 26/57/3 15/28/3
f 16/31/4 21/43/4 22/46/4
f 10/18/5 9/16/5 52/119/5
f 31/71/6 32/73/6 49/114/6
s 1
f 3/8/7 2/6/8 1/1/9
f 4/9/10 2/6/8 3/8/7
f 5/11/11 4/9/10 3/8/7
f 6/13/12 4/9/10 5/11/11
f 7/14/13 1/4/9 2/5/8
f 8/15/14 1/4/9 7/14/13
f 9/16/15 8/15/14 7/14/13
f 10/18/16 8/15/14 9/16/15
f 13/25/17 12/23/18 11/20/19
f 14/26/20 12/23/18 13/25/17
f 15/27/21 14/26/20 13/25/17
f 16/30/21 14/26/20 15/27/21
f 18/37/22 12/22/18 17/34/23
f 11/19/19 12/22/18 18/37/22
f 19/40/24 11/19/19 18/37/22
f 20/42/23 11/19/19 19/40/24
f 23/48/25 22/46/26 21/43/27
f 24/50/28 22/46/26 23/48/25
f 25/53/29 24/50/28 23/48/25
f 28/62/25 27/60/30 26/57/27
f 29/64/28 27/60/30 28/62/25
f 30/68/29 29/64/28 28/62/25
f 7/14/13 31/71/31 9/16/15
f 32/73/32 31/71/31 7/14/13
f 2/5/33 32/73/32 7/14/13
f 24/51/34 38/86/35 37/83/36
f 1/3/37 38/86/35 24/51/34
f 36/80/38 40/89/39 39/88/40
f 35/78/41 40/89/39 36/80/38
f 41/92/42 35/78/43 36/80/44
f 18/35/45 35/78/43 41/92/42
f 43/99/46 42/96/47 32/72/48
f 44/102/49 42/96/47 43/99/46
f 33/74/50 42/96/47 44/102/49
f 45/104/51 42/96/47 33/74/50
f 34/77/52 46/109/53 20/42/54
f 47/110/55 46/109/53 34/77/52
f 13/25/56 28/62/57 15/28/58
f 11/20/59 28/62/57 13/25/56
f 22/46/60 14/26/61 16/31/62
f 12/23/63 14/26/61 22/46/60
f 48/113/64 32/73/64 42/97/65
f 49/114/66 32/73/64 48/113/64
f 10/18/67 51/118/67 50/115/68
f 52/119/69 51/118/67 10/18/67
f 45/105/70 18/36/22 41/93/71
f 19/38/24 18/36/22 45/105/70
f 6/12/12 21/44/72 26/58/73
f 5/10/11 21/44/72 6/12/12
f 5/10/74 23/49/75 21/44/76
f 25/54/77 23/49/75 5/10/74
f 27/61/78 6/12/79 26/58/80
f 29/65/81 6/12/79 27/61/78
f 16/32/82 26/59/73 21/45/72
f 15/29/82 26/59/73 16/32/82
f 34/76/83 45/106/84 33/75/85
f 19/39/86 45/106/84 34/76/83
f 47/111/55 33/75/87 44/103/88
f 34/76/52 33/75/87 47/111/55
f 30/69/89 53/121/90 2/7/91
f 46/109/92 53/121/90 30/69/89
f 2/5/91 43/100/93 32/73/94
f 53/120/90 43/100/93 2/5/91
f 30/68/95 20/41/95 46/108/96
f 11/20/97 20/41/95 30/68/95
f 4/9/98 29/66/81 2/6/99
f 6/13/79 29/66/81 4/9/98
f 25/55/77 3/8/100 1/2/101
f 5/11/74 3/8/100 25/55/77
f 1/4/37 54/124/102 38/84/35
f 10/18/103 54/124/102 1/4/37
f 24/50/104 17/33/104 12/23/97
f 37/82/105 17/33/104 24/50/104
f 36/81/106 50/116/107 41/94/108
f 39/87/109 50/116/107 36/81/106
f 54/123/110 50/116/107 39/87/109
f 10/17/111 50/116/107 54/123/110
f 35/79/41 37/83/112 40/91/39
f 17/34/113 37/83/112 35/79/41
f 41/95/114 42/98/47 45/107/51
f 50/117/107 42/98/47 41/95/108
f 39/88/115 40/89/116 54/124/102
f 18/37/45 17/34/117 35/79/43
f 20/42/118 19/40/86 34/77/83
f 53/121/90 46/109/119 47/110/119
f 2/7/73 29/67/28 30/69/29
f 24/51/28 25/56/29 1/3/73
f 43/100/93 47/111/119 44/103/119
f 12/24/63 22/47/60 24/52/120
f 28/63/57 11/21/59 30/70/121
f 40/90/116 38/85/35 54/125/102
f 43/101/93 53/122/90 47/112/119
f 10/18/16 1/4/122 8/15/14
f 40/91/116 37/83/123 38/86/35
s 0
f 60/136/124 63/143/124 70/153/124
f 70/153/125 63/143/125 69/152/125
f 66/147/126 56/129/126 67/150/126
s 1
f 57/130/127 56/128/128 55/126/129
f 58/131/130 56/128/128 57/130/127
f 62/140/131 60/137/132 61/139/133
f 60/138/134 64/144/135 63/141/136
f 65/145/137 64/144/135 60/138/134
f 68/151/138 66/146/139 67/149/140
f 59/134/141 61/139/133 60/137/132
f 56/129/142 66/147/143 71/154/144
f 72/155/145 56/129/142 71/154/144
f 56/127/128 58/132/130 66/148/146
f 60/135/132 63/142/147 59/133/141
s 0
f 78/168/148 88/183/148 81/173/148
f 88/183/149 87/182/149 81/173/149
f 84/177/150 85/179/150 74/159/150
s 1
f 75/160/151 73/156/152 74/158/153
f 76/161/154 75/160/151 74/158/153
f 80/170/155 79/169/156 78/166/157
f 78/167/158 81/172/159 82/174/160
f 83/175/161 78/167/158 82/174/160
f 86/181/162 85/180/163 84/178/164
f 77/163/165 78/166/157 79/169/156
f 74/159/166 89/184/167 84/177/168
f 90/185/169 89/184/167 74/159/166
f 74/157/153 84/176/170 76/162/154
f 78/165/157 77/164/165 81/171/171
f 56/128/128 73/156/152 55/126/129
f 57/130/127 73/156/152 75/160/151
f 57/130/127 76/161/154 58/131/130
f 61/139/133 77/163/165 79/169/156
f 61/139/133 80/170/155 62/140/131
f 63/142/147 77/164/165 59/133/141
f 64/144/135 81/172/159 63/141/136
f 67/149/172 86/181/162 68/151/138
s 0
f 69/152/173 81/173/174 87/182/175
s 1
f 72/155/145 89/184/167 90/185/169
f 71/154/144 84/177/168 89/184/167
s 0
f 70/153/176 87/182/177 88/183/178
f 67/150/179 74/159/180 85/179/181
s 1
f 66/148/146 76/162/154 84/176/170
f 60/137/132 80/170/155 78/166/157
f 65/145/137 78/167/158 83/175/161
f 68/151/138 84/178/164 66/146/139
s 0
f 70/153/182 78/168/182 60/136/182
s 1
f 72/155/145 74/159/166 56/129/142
f 65/145/137 82/174/160 64/144/135
f 56/128/128 74/158/153 73/156/152
f 57/130/127 55/126/129 73/156/152
f 57/130/127 75/160/151 76/161/154
f 61/139/133 59/134/141 77/163/165
f 61/139/133 79/169/156 80/170/155
f 63/142/147 81/171/171 77/164/165
f 64/144/135 82/174/160 81/172/159
f 67/149/172 85/180/183 86/181/162
s 0
f 69/152/184 63/143/184 81/173/184
s 1
f 72/155/145 71/154/144 89/184/167
f 71/154/144 66/147/143 84/177/168
s 0
f 70/153/185 69/152/186 87/182/187
f 67/150/188 56/129/188 74/159/188
s 1
f 66/148/146 58/132/130 76/162/154
f 60/137/132 62/140/131 80/170/155
f 65/145/137 60/138/134 78/167/158
f 68/151/138 86/181/162 84/178/164
s 0
f 70/153/189 88/183/190 78/168/191
s 1
f 72/155/145 90/185/169 74/159/166
f 65/145/137 83/175/161 82/174/160
